<?xml version="1.0" encoding="UTF-8"?>
<!DOCTYPE svg PUBLIC "-//W3C//DTD SVG 1.1//EN" "http://www.w3.org/Graphics/SVG/1.1/DTD/svg11.dtd">
<!-- Creator: CorelDRAW 2020 (64 Bit) -->
<svg xmlns="http://www.w3.org/2000/svg" xml:space="preserve" width="297mm" height="210mm" version="1.1" style="shape-rendering:geometricPrecision; text-rendering:geometricPrecision; image-rendering:optimizeQuality; fill-rule:evenodd; clip-rule:evenodd"
viewBox="0 0 29700 21000"
 xmlns:xlink="http://www.w3.org/1999/xlink"
 xmlns:xodm="http://www.corel.com/coreldraw/odm/2003">
 <defs>
  <style type="text/css">
   <![CDATA[
    .fil0 {fill:white}
   ]]>
  </style>
 </defs>
 <g id="Camada_x0020_1">
  <metadata id="CorelCorpID_0Corel-Layer"/>
  <g id="_1971809665968">
   <path class="fil0" d="M23738.92 9191.62c556.54,0 997.09,-27 1441.62,220.78 350.57,195.4 562.53,557.94 561.13,1111.07 -3.36,1333.02 -1088.38,1313.99 -2011.32,1313.99l8.57 -2645.84zm-670.11 3194.83c435.04,0 870.21,1.97 1305.03,-3.5 400.51,-5.04 762.59,-83.9 1064.78,-239.97 1262.14,-651.88 1284.2,-2704.93 -12.88,-3278.44 -736.42,-325.61 -1523.53,-236.22 -2356.93,-236.22l0 3758.13z"/>
   <path class="fil0" d="M3307.04 10451.98c0,1157.18 597.93,1930.48 1761.86,1930.48 352.17,0 794.46,-63.95 1104.86,-217.66l199.74 -86.49c76.36,-41.71 31.07,2.59 53.89,-53.35l-2.65 -528.45c-88.86,21.25 -196.37,122.7 -278.25,176.18 -305.44,199.5 -633.6,298.95 -1023.96,298.65 -847.86,-0.67 -1304.37,-626.02 -1304.37,-1483.61 0,-798.38 454.71,-1437.73 1250.74,-1437.73 314.45,0 546.46,37.18 816.02,156.75 99.56,44.16 195.37,99.71 277.09,152.58 72.49,46.9 181.99,154.65 265.38,163.65l0 -572.97c-69.33,-22.44 -148.58,-66.9 -222.92,-98.08 -228.59,-95.9 -526.61,-180.55 -778.92,-204.43 -1159.7,-109.75 -2118.51,503.93 -2118.51,1804.48z"/>
   <path class="fil0" d="M17774.6 9942.69c618.76,-104.75 917.55,302.45 961.2,857.7 45.79,582.39 -125.69,1092.35 -646.7,1179.25 -617.12,102.93 -922.18,-301.22 -967.53,-852.26 -48.76,-592.6 116.21,-1093.8 653.03,-1184.69zm146.27 -420.2c-829.27,0 -1293.98,603.04 -1290.39,1447.86 3.58,839.83 461.49,1433.24 1308.44,1426.76 826.77,-6.31 1288.87,-597.54 1296.35,-1428.12 7.6,-845.29 -468.92,-1446.5 -1314.4,-1446.5z"/>
   <path class="fil0" d="M7861.97 9947.09c615.64,-116.34 926.9,279.68 974.82,826.85 51.67,590 -124.7,1107.63 -635.38,1202.96 -615.99,114.99 -929.61,-295.49 -975.68,-844.76 -50.28,-599.43 108.84,-1085.39 636.24,-1185.05zm1466.08 1202c83.28,-855.73 -342.11,-1533.27 -1110.32,-1612.64 -894.55,-92.43 -1395.38,438.01 -1476.61,1234.37 -87.48,857.81 341.22,1548.44 1115.89,1615.21 879.09,75.76 1392.27,-427.55 1471.04,-1236.94z"/>
   <path class="fil0" d="M10177.11 10271.28c150.17,-68.47 441.27,-315.4 772.59,-315.4 470.12,0 639.31,193.28 639.1,746.35l-1.19 1609.21 474.73 0c0,-388.73 9.67,-1735.41 -21.39,-1984.42 -103.09,-826.38 -912.9,-923.94 -1460.82,-673.55 -80.23,36.67 -141.25,72.36 -209.1,112.31 -73.89,43.52 -121.07,92.11 -197.04,125.08l-5.17 -288.27 -464.87 -1.11c-20.94,224.65 -5.79,2307.93 -5.76,2709.96 139.46,0.55 343.87,11.97 475.06,-8.09l3.86 -2032.07z"/>
   <path class="fil0" d="M12504.32 9987.23l321.75 0.49c0,278.15 -13.8,1445.72 6.09,1622.75 100.41,893.86 835.76,792.01 1442.27,683.09l4.38 -411.6c-235.56,36.77 -977.38,330.96 -977.38,-429l0 -1465.73 977.38 0c0.79,-127.9 12.73,-259.18 -8.87,-385.5l-968.51 0 0.38 -773.36 -475.74 -7.39 0.01 780.1 -315.79 0.4 -5.97 64.01 0 321.74z"/>
   <path class="fil0" d="M14681.14 12311.44l469.63 0 0 -1877.34c0,-59.49 89.34,-101.01 146.87,-138.8 456.36,-299.78 675.79,-248.73 1144.32,-192.98l-6.92 -464.9c-843.96,-132.71 -1052.95,275.5 -1284.27,358.12l0 -388.07 -469.7 0 0.07 2703.97z"/>
   <polygon class="fil0" points="19608.7,12321.48 20075.85,12316.56 20076.02,8644.16 19600.5,8642.23 "/>
   <polygon class="fil0" points="22004.26,12374.84 22613.81,12369.79 22614.02,9698.79 21996.17,9697.24 "/>
   <path class="fil0" d="M22301.58 8657.95c-525.58,42.16 -448.39,732.63 34.53,707.52 203.08,-10.56 355.05,-161.59 343.35,-379.6 -9.98,-186.05 -182.53,-343.59 -377.88,-327.92z"/>
  </g>
 </g>
</svg>
