<?xml version="1.0" encoding="UTF-8"?>
<!DOCTYPE svg PUBLIC "-//W3C//DTD SVG 1.1//EN" "http://www.w3.org/Graphics/SVG/1.1/DTD/svg11.dtd">
<!-- Creator: CorelDRAW 2020 (64 Bit) -->
<svg xmlns="http://www.w3.org/2000/svg" xml:space="preserve" width="297mm" height="210mm" version="1.1" style="shape-rendering:geometricPrecision; text-rendering:geometricPrecision; image-rendering:optimizeQuality; fill-rule:evenodd; clip-rule:evenodd"
viewBox="0 0 29700 21000"
 xmlns:xlink="http://www.w3.org/1999/xlink"
 xmlns:xodm="http://www.corel.com/coreldraw/odm/2003">
 <defs>
  <style type="text/css">
   <![CDATA[
    .fil0 {fill:white}
   ]]>
  </style>
 </defs>
 <g id="Camada_x0020_1">
  <metadata id="CorelCorpID_0Corel-Layer"/>
  <g id="_1972057609216">
   <path class="fil0" d="M16134.09 11794.37c-144.41,0 -246.95,-11.79 -374.85,-76.09 -170.94,-85.94 -281.8,-200.94 -369.72,-374.82 -101.45,-200.63 -97.74,-482.02 3.51,-683.41 124.12,-246.91 337.81,-407.31 616.59,-442.56l92.97 -6.99 167.89 21.28c236.02,57.79 434.09,207.04 538.27,431.75 101.35,218.55 99.05,448.97 5.52,667.96 -111.35,260.72 -398.71,462.88 -680.18,462.88zm28.83 796.98l-126.66 0c-146.98,-6.01 -294.82,-32.76 -439.78,-81.1l-233.4 -102.19c-20.77,-12.06 -39.1,-20.25 -61.05,-33.32 -122.24,-72.85 -222.22,-153.41 -322.78,-253.98 -98.12,-98.12 -180.89,-211.92 -250.14,-331.88l-33.51 -60.86c-11.74,-22.96 -18.95,-43.43 -29.58,-64.8 -73.51,-147.78 -141.63,-402.38 -141.63,-623.9l0 -2422.42c0,-19.29 24.7,-19.11 43.75,-24.42 144.87,-40.37 340.5,-80.95 490.88,-91.12 33.77,-2.27 81.52,-9.45 115.37,-10.46 22.1,-0.67 46.11,0.12 68.4,0.23 73.87,0.38 74.63,-25.02 73.53,41.7 -5.77,346.71 -0.19,738.91 -0.19,1090.79 37.11,-8.64 229.48,-149.63 591.53,-194.98 142.12,-17.8 333.17,-15.43 475.94,13.64 403.85,82.22 641.35,238.94 908,523.43 10.66,11.36 20.1,24.51 30.46,37.7 288.42,367.22 435.25,869.24 312.64,1356.77 -65.94,262.24 -145.26,433.93 -317.83,652.18l-46.31 53.31c-17.93,17.63 -25.95,31.52 -44.52,49.87 -68.46,67.65 -129.26,121.73 -208.85,179.16 -253.74,183.09 -549.8,284.38 -854.27,296.65z"/>
   <path class="fil0" d="M10885.52 11159.92c0,-42.62 -10.48,-72.64 -10.48,-120.6 0,-187.43 26.09,-300.43 113.66,-447.37 31.71,-53.23 65.54,-96.28 107.86,-138.58 91.13,-91.06 171.69,-147.39 298.32,-194.56 47.81,-17.81 141.16,-42.54 203.73,-42.69 26.59,-0.07 34.41,-4.46 52.74,-4.99l168.82 19.37c56.64,11.27 137.22,37.71 187.41,64.26l-137.82 108.62c-204,151.31 -423.11,330.81 -630,486.83 -25.2,19 -46.48,36.34 -70.37,55.46 -22.77,18.2 -44.77,35.02 -68.13,52.46l-142.39 109.3c-16.06,12.28 -55.67,47.76 -73.35,52.49zm807.18 1431.43l-105.72 0c-111.53,-3.79 -221.05,-19.67 -322.13,-49 -147.37,-42.73 -217.55,-67.58 -349.62,-138.03 -355.83,-189.8 -622.4,-513.77 -750.02,-896.36 -53.31,-159.8 -81.92,-329.57 -81.92,-510.59 0,-170.77 25.09,-283.34 60.79,-426.83 45.45,-182.65 175.01,-429.11 297.36,-573.04 130.02,-152.96 243.45,-254.57 416.87,-359.13 121.53,-73.29 274.69,-136.08 409.93,-172.09 304.39,-81.04 633.92,-56.52 924.9,45.21 35.87,12.54 71.72,26.23 104.64,42.16 34.92,16.9 62.08,27.25 94.79,46.79l138.37 81.84c15.04,10.26 23.94,17.45 39.79,28.37 29.86,20.56 55.45,41.32 83,63.82 16.51,13.5 23.9,18.98 39.36,34.05 14.16,13.77 22.53,17.1 36.88,31.28l107.35 112.87c14.41,14.48 18.41,21.95 31.52,36.64 49.04,54.9 139.86,190.09 173.51,256.45 12.12,23.89 40.12,73.66 45.37,96.2 -23.79,12.58 -37.46,26.6 -57.62,42l-277.9 214.98c-36.7,28.04 -71.81,56.52 -109.41,84.59l-1055.39 816.47c-32.3,24.06 -254.28,204.35 -277.17,210.46 12.25,16.73 53.35,28.95 77.08,38.29 152.24,59.89 322.55,60.55 479.84,20.52 50.92,-12.95 116.2,-39.05 157.85,-62.36 101,-56.55 172.83,-115.77 243.55,-202.13 53.48,-65.31 141.26,-216.45 148.02,-297.67 116.75,0 301.93,32 412.16,59.75 77.11,19.4 289.87,79.68 353.36,113.28 -2.07,24.93 -30.36,104.24 -39.97,133.05 -14.64,44.05 -28.35,80.74 -47.4,120.38 -30.57,63.6 -48.53,105.28 -85.35,166.34 -75.82,125.74 -90.54,134.48 -175.54,243.93 -38.5,49.54 -85.1,86.51 -125.02,126.65 -123.62,124.34 -303.02,230.74 -460.17,300.12 -162.31,71.65 -359.15,114.21 -555.94,120.74z"/>
   <path class="fil0" d="M22069.54 11002.62c0,124.62 -28.38,236.27 -68.22,325.02 -18.54,41.31 -42.11,84.83 -67,121.78 -30.14,44.76 -33.74,45.14 -62.46,79.1 -126.32,149.33 -340.58,265.85 -552.12,265.85 -124.19,0 -197.74,-3.38 -316.95,-50.08 -203.44,-79.72 -357.54,-231.63 -444.92,-435.96 -22.4,-52.36 -55.64,-167.37 -56.18,-237.46 -0.22,-30.54 -5.92,-44.79 -5.35,-68.1 3.62,-149.87 42.69,-273.81 112.09,-402.11 15.77,-29.15 39.14,-62.28 59.48,-87.34 13.99,-17.24 20.51,-23.4 34.38,-39.01 166.56,-187.44 425.24,-294.17 682.77,-255.35 47.54,7.18 78.88,13.5 121.29,25.53 325.66,92.37 563.19,408.4 563.19,758.13zm-737.41 1588.73l-110.18 0c-109.16,-3.76 -217.75,-18.83 -322.8,-46.07 -201.55,-52.25 -419.38,-153.76 -579.68,-285.47 -101.11,-83.07 -132.35,-111.13 -220.2,-209.76 -87.1,-97.77 -192.58,-254.48 -243.94,-374.77 -20.47,-47.97 -39.06,-88.92 -55.49,-138.5 -75.19,-227 -89.79,-336.77 -89.79,-586.59 0,-228.55 78.27,-481.76 155.54,-636.2 98.69,-197.24 160.62,-274.91 307.35,-437.21 10.95,-12.12 13.78,-10.48 26,-21.19 18.38,-16.09 31.55,-34.15 50.38,-49.23 155.47,-124.44 217.4,-174.98 425.34,-266.78 89.3,-39.43 196.18,-70.43 300.28,-92.98 131.28,-28.41 312.37,-37.93 450.56,-23.12 91.12,9.77 169.53,18.74 255.48,43.39 298.57,85.65 435.56,171.95 670.15,368.04 39.33,32.87 82.57,86.25 118.27,122.92 29.41,30.2 108.96,140.78 128.68,170.19 51.47,76.74 100.05,168.1 136.61,256.63 79.12,191.54 126.58,390.27 126.58,659.92l0 1546.78 -791.73 0 0 -209.73c-104.02,55.03 -203.23,106.48 -328.44,143.46 -131.46,38.82 -269.84,61.49 -408.97,66.27z"/>
   <path class="fil0" d="M23102.48 10352.44c0,161.26 15.24,272.18 77.17,415.69 17.2,39.85 30.05,63.56 48.65,98.17 39.46,73.42 73.38,106.79 118.39,164.75 20.73,26.69 44.04,51.57 69.6,71.97 163.81,130.77 258.69,190.62 482.62,235.71 137.32,27.66 393.91,15.19 561.59,15.19 127.84,0 239.49,-15.19 311.12,113.58 58.57,105.3 17.86,241.76 -77.26,298.56 -73.94,44.16 -143.44,33.54 -254.84,33.54 -382.76,0 -765.52,0 -1148.29,0l-44.95 180.51c-14.16,64.26 -25.13,121.76 -36,189.48 -19.33,120.41 -34.41,305.7 -34.41,421.76l1489.11 0c140.54,0 274.29,-45.62 372.21,-89.2 26.84,-11.96 48.63,-25.55 75.09,-40.27 28.24,-15.7 44.1,-28.01 69.69,-45.67 233.55,-161.22 405.84,-464.08 405.84,-752.93 0,-166.64 -11.85,-258.79 -72.59,-409.8 -115.5,-287.2 -373.88,-501.05 -681.29,-571.87 -216.85,-49.96 -673.88,5.93 -793.68,-34.78 -65.24,-22.17 -116.3,-72.93 -137.59,-140.27 -26.43,-83.52 -1.92,-158.74 38.61,-211.93 43.9,-57.59 117.54,-83.85 193.95,-83.94 370.57,-0.41 741.2,0.18 1111.78,0.18l45.91 -179.54c13.93,-65.72 24.16,-120.56 34.94,-190.52 20.05,-130.03 34.5,-275.27 34.5,-421.68l-1310.84 0c-380.59,0 -714.03,241.38 -858.18,552.28 -45.13,97.33 -90.85,241.68 -90.85,381.03z"/>
   <path class="fil0" d="M5227.97 10892.51l0 1698.84 791.75 0 0 -1756.51c0,-135.91 38.31,-250.17 104.78,-351.39 61.79,-94.09 147.9,-163.08 248.19,-213.22 36.22,-18.1 69.34,-28.55 112.61,-39.46 17.44,-4.4 46.25,-10.95 65.33,-13.31 22.3,-2.75 54.08,-5.84 72.22,-6.8 67.53,-3.53 190.37,25.28 251.46,52.7 62.07,27.87 136.28,75.98 184.99,124.38l68.9 83.16c66.05,95.63 113.2,217.18 113.2,348.21l0 1772.24 791.75 0 0 -1719.82c0,-248.8 -42.62,-423.18 -114.6,-598.49 -54.25,-132.16 -145.73,-275.55 -240.68,-383.28 -28.31,-32.12 -105.32,-110.21 -137.59,-135.07 -16.32,-12.58 -31.36,-26.09 -48.83,-40.31 -16.84,-13.71 -34.25,-26.6 -50.82,-38.32 -147.68,-104.41 -311.15,-181.95 -494.88,-223.43 -66.19,-14.95 -165.65,-34.22 -233.84,-33.58 -36.96,0.33 -58.88,-6.96 -89.06,-5.37 -28.22,1.49 -48.3,4.9 -84.25,5.25 -138.86,1.37 -384.26,71.31 -499.7,129.5 -245.42,123.71 -420.59,268.34 -574.97,499.91 -163.56,245.29 -235.96,513.19 -235.96,844.17z"/>
   <path class="fil0" d="M8295.32 8616.9l0 2611.18c0,303.4 148.06,678.96 363.19,900.45 10.48,10.8 10.41,12.66 18.79,23.15l110.11 104.88c17.2,13.81 28.31,24.02 46.47,37.42 111.9,82.64 127.62,95.27 261.91,162.79 130.02,65.38 354.78,134.58 547.07,134.58 263.73,0 399.96,-25.52 630.71,-124.32l145.29 -74.93c-15.42,-23.03 -45.7,-48.32 -66.85,-69.47 -12.63,-12.63 -21.39,-21.5 -34.1,-34.06 -15.86,-15.67 -20.3,-23.75 -34.11,-39.3l-124.08 -153.82c-121.76,-168.3 -122.12,-207.29 -202.26,-358.76 -214.45,113.47 -514.19,59.98 -693.45,-119.28 -47.69,-47.7 -88.52,-106.18 -119.36,-169.03 -26.76,-54.56 -57.6,-149.78 -57.6,-230.78l0 -1006.73 582.02 0c21.49,0 21.17,-40.32 30.42,-79.68 7.41,-31.57 12.24,-57.83 18.96,-91.16 37.62,-186.65 60.73,-413.39 60.73,-610.41 0,-12.08 -3.65,-15.73 -15.74,-15.73l-676.39 0 0 -912.33c0,-24.18 -23.08,-13.37 -37.16,-11.57l-167.32 6.32c-82.27,0.22 -337.82,44.78 -410.07,61.82l-137.55 35.48c-18.8,5.01 -39.63,4.46 -39.63,23.29z"/>
   <path class="fil0" d="M13418.05 8616.9l0 3974.45 791.74 0 0 -4089.79c0,-24.18 -23.09,-13.37 -37.17,-11.57l-167.35 6.29c-122.6,1.68 -426.85,60.41 -547.3,97.63 -19.57,6.04 -39.92,4.36 -39.92,22.99z"/>
   <path class="fil0" d="M17927.31 10771.91l0 1819.44 786.5 0 0 -1740.78c0,-260.28 124.54,-441.14 289.38,-544.31 11.3,-7.08 16.52,-11.66 28.74,-18.45 59.79,-33.21 157.08,-67.94 227.32,-71.55 68.96,-3.54 113.15,-6.34 181.16,7.31 55.34,11.12 107.1,28.04 149.03,50.23l141.83 -272.42c48.32,-80.93 119.33,-167.85 179.57,-239.88l102.54 -107.19c16.98,-13.53 25.17,-17.55 37.48,-35.92 -125.17,-66.23 -180.87,-97.96 -315.21,-140.98 -105.85,-33.88 -343.95,-74.54 -451.75,-59.71 -19.29,2.65 -37.04,0.74 -56.41,1.26 -81.34,2.22 -216.38,30.77 -292.85,53.22 -341.76,100.34 -629.72,329.04 -811.18,630.74 -8.46,14.08 -12.47,22.62 -20.91,36.76 -96.57,161.76 -175.24,437.11 -175.24,632.23z"/>
   <path class="fil0" d="M4147.84 9544.98l0 3046.37 786.51 0 0 -3177.46c-28.97,0.64 -42.32,5.46 -104.89,5.22 -206.77,-0.79 -447.79,52.65 -646.18,103.64 -17.64,4.53 -35.44,3.94 -35.44,22.23z"/>
   <path class="fil0" d="M4111.14 8831.87c0,141.63 30.96,237.55 129.75,336.92 200.15,201.34 550.82,152.8 686.49,-118.42 59.06,-118.09 59.89,-267.55 1.84,-386.4 -43.14,-88.28 -114.58,-158.9 -202.77,-200.97 -49.69,-23.7 -103.59,-36.93 -157.95,-40.1l-51.61 0c-92.31,5.4 -182.58,39.58 -252.52,100.78 -12.33,10.78 -17.46,11.33 -28.76,23.69 -69.08,75.44 -124.47,176.69 -124.47,284.5z"/>
  </g>
 </g>
</svg>
