<?xml version="1.0" encoding="UTF-8"?>
<!DOCTYPE svg PUBLIC "-//W3C//DTD SVG 1.1//EN" "http://www.w3.org/Graphics/SVG/1.1/DTD/svg11.dtd">
<!-- Creator: CorelDRAW 2020 (64 Bit) -->
<svg xmlns="http://www.w3.org/2000/svg" xml:space="preserve" width="297mm" height="210mm" version="1.1" style="shape-rendering:geometricPrecision; text-rendering:geometricPrecision; image-rendering:optimizeQuality; fill-rule:evenodd; clip-rule:evenodd"
viewBox="0 0 29700 21000"
 xmlns:xlink="http://www.w3.org/1999/xlink"
 xmlns:xodm="http://www.corel.com/coreldraw/odm/2003"
 enable-background="new 0 0 382.679 209.763">
 <defs>
  <style type="text/css">
   <![CDATA[
    .fil5 {fill:#26478D}
    .fil4 {fill:#26478D;fill-rule:nonzero}
    .fil0 {fill:#406EB3;fill-rule:nonzero}
    .fil1 {fill:#632678;fill-rule:nonzero}
    .fil2 {fill:#982881;fill-rule:nonzero}
    .fil3 {fill:#BA2F7D;fill-rule:nonzero}
   ]]>
  </style>
 </defs>
 <g id="Camada_x0020_1">
  <metadata id="CorelCorpID_0Corel-Layer"/>
  <g id="_1971948021312">
   <path class="fil0" d="M8804.71 7952.97l-615.09 0c-183.03,0 -331.08,-148.27 -331.08,-331.02l0.02 -615.13c0,-182.69 147.99,-330.92 331.08,-330.92l615.07 0c182.8,0 330.92,148.27 330.92,330.92l0 615.13c0,182.75 -148.1,331.02 -330.92,331.02z"/>
   <path class="fil1" d="M7213.5 9331.77l-691.95 0c-205.55,0 -372.36,-166.3 -372.36,-372.25l0 -692.12c0,-205.45 166.74,-372.32 372.36,-372.32l691.95 0c205.67,0 372.42,166.87 372.42,372.32l0 692.18c0,205.89 -166.75,372.19 -372.42,372.19z"/>
   <path class="fil2" d="M7147.62 10768.05l-422.61 0c-125.65,0 -227.75,-101.7 -227.75,-227.62l0 -422.42c0,-126.03 102.1,-227.92 227.75,-227.92l422.61 0c125.71,0 227.62,101.87 227.62,227.92l0 422.42c0,125.92 -101.93,227.62 -227.62,227.62z"/>
   <path class="fil3" d="M8282.38 12103.55l-499.75 0c-148.56,0 -268.97,-120.13 -268.97,-268.91l0 -499.81c0,-148.78 120.41,-268.98 268.97,-268.98l499.75 0.02c148.57,0 268.98,120.18 268.98,268.98l0 499.81c0,148.76 -120.41,268.89 -268.98,268.89z"/>
   <path class="fil3" d="M10113.74 8204.65l-346.25 0c-102.89,0 -186.17,-83.57 -186.17,-186.12l0 -345.83c0,-102.9 83.28,-186.46 186.17,-186.46l346.25 0c102.78,0 185.96,83.56 185.96,186.46l0 345.83c-0.02,102.55 -83.18,186.12 -185.96,186.12z"/>
   <path class="fil4" d="M19127.22 11365.35c110.1,0 199.18,-89.1 199.18,-199.42 0,-110.15 -89.1,-199.69 -199.18,-199.69 -110.09,0 -199.98,89.54 -199.98,199.69 0.05,110.32 89.89,199.42 199.98,199.42z"/>
   <path class="fil4" d="M11844.05 13493.71c-30.86,46.3 -80.99,69.39 -134.99,69.39 -30.8,0 -65.56,-7.7 -92.59,-23.09 -42.4,-27.03 -73.32,-84.86 -73.32,-142.72 0,-27.03 7.77,-54.06 23.13,-77.15l462.93 -728.91 -462.93 -728.96c-15.36,-23.14 -23.13,-54 -23.13,-81.03 0,-53.96 27.03,-111.79 77.2,-138.89 26.96,-15.37 54,-23.09 84.82,-23.09 54,0 108.02,23.09 138.88,69.43l378 597.81 381.77 -597.81c30.92,-46.36 84.92,-69.43 138.92,-69.43 30.87,0 57.83,7.7 84.82,23.09 50.17,27.03 77.1,84.93 77.1,138.89 0,27.03 -7.71,57.89 -23.1,81.03l-462.86 728.96 462.86 728.91c15.37,23.09 23.1,50.12 23.1,77.15 0,57.83 -30.8,115.69 -73.27,142.72 -26.96,15.37 -61.72,23.09 -92.59,23.09 -53.95,0 -104.12,-23.09 -134.98,-69.39l-381.77 -593.97 -378 593.97z"/>
   <path class="fil4" d="M13494.18 11846.75c173.56,-158.15 408.87,-254.54 663.41,-254.54 555.45,0 998.99,443.59 998.99,998.94 0,547.79 -443.56,991.28 -998.99,991.28 -254.61,0 -489.83,-96.46 -663.41,-254.61l0 852.4c0,84.86 -77.09,158.14 -165.74,158.14 -81.03,0 -162.02,-73.26 -162.02,-158.14l0 -2414.5c0,-84.82 80.99,-158.15 162.02,-158.15 88.65,0 165.74,73.33 165.74,158.15l0 81.03zm663.41 77.31c-370.27,0 -663.41,293.01 -663.41,667.17 0,370.28 293.14,663.35 663.41,663.35 374.23,0 667.24,-293.07 667.24,-663.35 -0.02,-374.14 -293.03,-667.17 -667.24,-667.17z"/>
   <path class="fil4" d="M17980.38 12409.91l0 998.88c0,84.86 -81.03,158.14 -162.02,158.14 -88.75,0 -165.85,-73.26 -165.85,-158.14l0 -1643.09c0,-84.86 77.1,-158.15 165.85,-158.15 77.2,0 158.09,69.39 162.02,150.42 134.93,-104.12 308.57,-162.02 497.45,-165.79 104.19,0 181.29,80.99 181.29,161.96 0,88.65 -80.99,169.75 -181.29,169.75 -258.31,7.72 -497.45,100.36 -497.45,486.02z"/>
   <path class="fil4" d="M19129.54 11607.64c-88.66,0 -165.75,73.26 -165.75,158.14l0 1643.09c0,84.87 77.09,158.15 165.75,158.15 81.03,0 162.02,-73.26 162.02,-158.15l0 -1643.09c0,-84.88 -80.93,-158.14 -162.02,-158.14z"/>
   <path class="fil4" d="M21224.06 11765.76c0,-84.86 76.98,-158.14 165.74,-158.14 81.03,0 162.02,73.26 162.02,158.14l0 1643.09c0,84.86 -80.99,158.15 -162.02,158.15 -88.76,0 -165.74,-73.26 -165.74,-158.15l0 -80.99c-177.39,158.15 -408.97,254.55 -663.58,254.55 -555.35,0 -998.82,-443.43 -998.82,-998.84 0,-547.68 443.49,-991.28 998.84,-991.28 254.61,0 486.17,96.42 663.58,254.61l-0.02 -81.14zm-663.58 1484.94c370.33,0 663.58,-293.13 663.58,-667.24 0,-370.27 -293.25,-663.34 -663.58,-663.34 -374.11,0 -667.14,293.07 -667.14,663.34 0,374.13 293.01,667.24 667.14,667.24z"/>
   <path class="fil4" d="M23221.92 12429.17c0,-273.74 -239.11,-512.92 -512.99,-512.92 -266.1,0 -512.98,108.02 -512.98,493.72l0 998.88c0,84.86 -80.99,158.15 -162.13,158.15 -88.76,0 -165.75,-73.26 -165.75,-158.15l0 -1643.09c0,-84.86 76.99,-158.14 165.75,-158.14 77.33,0 158.3,69.38 162.13,150.42 138.92,-108.07 316.33,-165.79 509.05,-165.79 447.43,0 844.75,351.01 844.75,790.63l0 1025.97c0,84.86 -80.86,158.15 -161.91,158.15 -88.76,0 -165.85,-73.26 -165.85,-158.15l0 -979.68 -0.07 0z"/>
   <path class="fil4" d="M11451.98 12529.53c-7.7,-505.33 -458.86,-937.32 -991.17,-937.32 -555.45,0 -998.95,443.59 -998.95,991.28 0,555.38 443.5,998.83 998.95,998.83 266.1,0 513.05,-104.12 690.37,-281.47 34.7,-30.86 57.84,-77.16 57.84,-123.45 0,-88.65 -77.16,-165.79 -165.86,-165.79 -50.12,0 -96.42,30.86 -131.11,65.6 -111.9,119.49 -277.71,173.52 -451.26,173.52 -331.64,0 -601.45,-227.31 -659.52,-543.45l1488.8 -0.02c1.13,0 2.08,-0.41 3.21,-0.41l4.51 0.02c2.77,-0.27 5.52,-1.19 8.28,-1.63 5.75,-0.86 11.37,-1.64 16.9,-3.32 70.27,-18.93 129.01,-86.12 129.01,-172.39zm-991.17 -609.41c299.09,0 547.55,191.93 632.37,459.37l-1268.68 0c84.82,-267.44 333.62,-459.37 636.31,-459.37z"/>
   <path class="fil4" d="M17375 12529.53c-7.83,-505.33 -458.99,-937.32 -991.22,-937.32 -555.45,0 -999.15,443.59 -999.15,991.28 0,555.38 443.72,998.83 999.15,998.83 266.11,0 512.99,-104.12 690.27,-281.47 34.74,-30.86 57.83,-77.16 57.83,-123.45 0,-88.65 -77.09,-165.79 -165.74,-165.79 -50.17,0 -96.59,30.86 -131.22,65.6 -111.86,119.49 -277.71,173.52 -451.16,173.52 -331.64,0 -601.57,-227.31 -659.58,-543.45l1486.27 -0.02c1.02,0 2.08,-0.41 3.1,-0.41l7.13 0.02c4.39,-0.4 8.79,-1.74 13.18,-2.63 2.19,-0.52 4.51,-0.69 6.7,-1.3 72.61,-16.8 134.44,-85.06 134.44,-173.41zm-991.28 -609.41c299.03,0 547.62,191.93 632.44,459.37l-1268.88 0c84.86,-267.44 333.68,-459.37 636.44,-459.37z"/>
   <path class="fil4" d="M10460.98 8662.51c-555.45,0 -999.16,443.55 -999.16,991.21 0,555.63 443.73,998.99 999.16,998.99 266.1,0 512.92,-104.08 690.33,-281.47 34.74,-30.8 57.83,-77.1 57.83,-123.39 0,-88.65 -77.09,-165.92 -165.74,-165.92 -50.23,0 -96.59,30.93 -131.27,65.73 -111.85,119.45 -277.74,173.45 -451.19,173.45 -331.64,0 -601.58,-227.23 -659.58,-543.57l1486.28 0.04c1.02,0 2.09,-0.4 3.11,-0.4l7.09 0c4.45,-0.41 8.79,-1.75 13.17,-2.64 2.26,-0.51 4.56,-0.68 6.77,-1.3 72.58,-16.77 134.44,-85.03 134.44,-173.35 -7.79,-505.38 -459.05,-937.38 -991.24,-937.38zm-636.42 787.3c84.82,-267.5 333.62,-459.43 636.44,-459.43 299.03,0 547.62,191.93 632.48,459.43l-1268.92 0z"/>
   <path class="fil4" d="M14476.85 8677.94c-88.76,0 -165.75,73.26 -165.75,158.15l0 81.03c-177.39,-158.19 -408.97,-254.61 -663.58,-254.61 -555.34,0 -998.81,443.55 -998.81,991.21 0,555.63 443.49,998.99 998.83,998.99 254.61,0 486.17,-96.36 663.58,-254.55l0 81.04c0,84.82 76.99,158.08 165.75,158.08 81.03,0 162.02,-73.26 162.02,-158.08l-0.02 -1643.18c0,-84.82 -80.99,-158.08 -162.02,-158.08zm-829.37 1643.19c-374.1,0 -667.13,-293.24 -667.13,-667.41 0,-370.23 293,-663.34 667.13,-663.34 370.34,0 663.58,293.14 663.58,663.34 0,374.17 -293.24,667.41 -663.58,667.41z"/>
   <path class="fil4" d="M18121.42 8677.94c-88.76,0 -165.75,73.26 -165.75,158.15l0 81.03c-177.34,-158.19 -408.9,-254.61 -663.51,-254.61 -555.35,0 -998.82,443.55 -998.82,991.21 0,555.63 443.49,998.99 998.84,998.99 254.61,0 486.17,-96.36 663.51,-254.55l0 81.04c0,84.82 76.99,158.08 165.75,158.08 81.03,0 162.02,-73.26 162.02,-158.08l-0.02 -1643.18c0,-84.82 -80.93,-158.08 -162.02,-158.08zm-829.26 1643.19c-374.11,0 -667.13,-293.24 -667.13,-667.41 0,-370.23 293,-663.34 667.13,-663.34 370.33,0 663.51,293.14 663.51,663.34 0,374.17 -293.18,667.41 -663.51,667.41z"/>
   <path class="fil4" d="M12539.17 8662.51c-188.94,3.76 -362.56,61.72 -497.49,165.79 -3.94,-80.99 -84.82,-150.42 -162.02,-150.42 -88.76,0 -165.85,73.26 -165.85,158.14l0 1643.26c0,84.82 77.09,158.08 165.85,158.08 80.99,0 162.02,-73.26 162.02,-158.08l-0.02 -999.11c0,-385.66 239.11,-478.23 497.49,-485.96 100.3,0 181.29,-81.03 181.29,-169.75 0.02,-80.96 -77.1,-161.95 -181.27,-161.95z"/>
   <path class="fil5" d="M8957.67 9613.92c-122.09,-66.96 -247.57,-128.52 -368.87,-196.54 -49.21,-27.59 -97.08,-61.22 -136.35,-101.26 -93.21,-94.67 -77.88,-233.66 30.86,-294.88 33.23,-18.51 73.05,-29.56 110.94,-34.69 112.92,-15.33 215.91,14.75 314.7,71.07 49.34,28.16 105.14,49.06 160.72,60.83 58,12.22 109.08,-14.54 145.08,-62.96 35.14,-47.59 35.14,-101.32 5.74,-149.08 -23.47,-38.18 -54.74,-75.01 -90.56,-102.04 -137.76,-103.44 -296.84,-146.76 -467.42,-151.65 -125.2,2.15 -244.41,27.88 -354.73,89.27 -237.88,132.62 -330.75,389.66 -228.48,639.97 49.9,121.71 140.91,208.42 253.32,271.38 98.95,55.64 202.05,103.79 303.48,155.1 84.75,42.98 167.53,89.38 234.04,159.26 82.29,85.88 99.62,184.16 45.45,264.74 -40.61,60.32 -102.17,86.33 -171.2,97.66 -136.22,21.96 -259.91,-12.46 -375.97,-83.8 -40.15,-24.84 -81.16,-50.47 -124.9,-66.9 -125.58,-47.6 -242.06,44.21 -218.24,169.96 10.71,55.81 46.02,97.31 87.74,133.31 217.76,188.2 612.94,235.34 874.64,104.4 281.53,-140.84 379.68,-441.92 234.73,-722.09 -58.88,-114.11 -155.19,-190.59 -264.72,-251.06z"/>
   <path class="fil5" d="M15813.9 9613.92c-122.09,-66.96 -247.57,-128.52 -368.87,-196.54 -49.21,-27.59 -97.08,-61.22 -136.35,-101.26 -93.21,-94.67 -77.88,-233.66 30.86,-294.88 33.23,-18.51 73.05,-29.56 110.94,-34.69 112.92,-15.33 215.92,14.75 314.7,71.07 49.34,28.16 105.15,49.06 160.72,60.83 58,12.22 109.09,-14.54 145.08,-62.96 35.14,-47.59 35.14,-101.32 5.75,-149.08 -23.48,-38.18 -54.75,-75.01 -90.57,-102.04 -137.76,-103.44 -296.84,-146.76 -467.42,-151.65 -125.2,2.15 -244.41,27.88 -354.73,89.27 -237.88,132.62 -330.75,389.66 -228.47,639.97 49.89,121.71 140.9,208.42 253.31,271.38 98.95,55.64 202.05,103.79 303.48,155.1 84.75,42.98 167.53,89.38 234.05,159.26 82.28,85.88 99.61,184.16 45.44,264.74 -40.61,60.32 -102.17,86.33 -171.2,97.66 -136.22,21.96 -259.91,-12.46 -375.97,-83.8 -40.15,-24.84 -81.16,-50.47 -124.9,-66.9 -125.58,-47.6 -242.05,44.21 -218.24,169.96 10.71,55.81 46.02,97.31 87.74,133.31 217.77,188.2 612.94,235.34 874.64,104.4 281.54,-140.84 379.68,-441.92 234.73,-722.09 -58.87,-114.11 -155.19,-190.59 -264.72,-251.06z"/>
  </g>
 </g>
</svg>
