<?xml version="1.0" encoding="UTF-8"?>
<!DOCTYPE svg PUBLIC "-//W3C//DTD SVG 1.1//EN" "http://www.w3.org/Graphics/SVG/1.1/DTD/svg11.dtd">
<!-- Creator: CorelDRAW 2020 (64 Bit) -->
<svg xmlns="http://www.w3.org/2000/svg" xml:space="preserve" width="297mm" height="210mm" version="1.1" style="shape-rendering:geometricPrecision; text-rendering:geometricPrecision; image-rendering:optimizeQuality; fill-rule:evenodd; clip-rule:evenodd"
viewBox="0 0 29700 21000"
 xmlns:xlink="http://www.w3.org/1999/xlink"
 xmlns:xodm="http://www.corel.com/coreldraw/odm/2003"
 enable-background="new 0 0 382.679 209.763">
 <defs>
  <style type="text/css">
   <![CDATA[
    .fil2 {fill:#1A4377}
    .fil3 {fill:#1A4378}
    .fil0 {fill:#1B4478}
    .fil1 {fill:#FAD71C}
   ]]>
  </style>
 </defs>
 <g id="Camada_x0020_1">
  <metadata id="CorelCorpID_0Corel-Layer"/>
  <g id="_1971948841840">
   <path class="fil0" d="M4406.56 10022.28l0 2585.86c0,128.26 170.1,298.37 298.36,298.37l3033.42 0c178.99,0 323.23,-180.76 323.23,-372.96l0 -919.97 -646.46 0c-120.16,0 -415.13,472.42 -571.88,472.42 -249.79,0 -223.77,-278.34 -223.77,-472.42l-273.5 0c-307.43,0 -522.15,-280.82 -522.15,-596.74l0 -1342.65 -1094.02 0c-128.62,0 -323.23,128.92 -323.23,348.09z"/>
   <path class="fil1" d="M6122.18 8580.17c0,-192.24 106.13,-298.37 298.37,-298.37l2859.37 0c160.5,0 298.37,93.08 298.37,248.64l0 2561c0,161.47 -159.66,248.63 -323.24,248.63l-1193.48 0 0 -1292.93c0,-192.19 -144.24,-372.95 -323.23,-372.95l-1616.16 0 0 -1094.02zm-174.05 -99.46l0 2610.73c0,478.3 538.94,422.69 795.65,422.69 0,405.94 -39.43,447.55 99.45,447.55 123.39,0 367.17,-417.7 523.9,-445.81 135.28,-24.28 1633.53,5.76 1938.83,-0.57 292.79,-6.07 471.24,-227.16 471.24,-523.32l0 -2386.95c0,-153.49 -37.26,-246.13 -108.45,-339.1 -51.57,-67.33 -184.59,-158.18 -289.37,-158.18l-3058.29 0c-166.16,0 -372.96,206.18 -372.96,372.96z"/>
   <path class="fil0" d="M22706.52 10569.29l0 1193.47 323.24 0 0 -1143.74c0,-428.14 594.63,-518.64 764.72,-167.99 65.47,134.98 32.32,760.8 30.84,1013.46 -1.93,328.23 -50.66,298.27 273.6,298.27 123.85,0 74.59,-387.3 74.59,-621.6 0,-201.83 -41.01,-517.64 22.96,-673.22 160.31,-389.91 772.69,-251.32 772.69,126.21l0 1168.61 323.23 0 0 -1193.47c0,-376.67 -486.18,-857.49 -1053.66,-581.24 -138.54,67.44 -135.27,113.78 -239.27,183.41 -69.78,-46.72 -268.77,-273.5 -547.02,-273.5 -378.53,0 -745.92,321.52 -745.92,671.33z"/>
   <path class="fil2" d="M21562.78 10246.05c331.45,0 577.94,153.43 646.46,447.56l-1193.47 0c86.86,-181.04 218.55,-447.56 547.01,-447.56zm-895.11 571.88c0,591.9 426.96,994.56 944.84,994.56 265.72,0 411.51,-141.26 571.87,-248.64l-217.89 -229.66c-145.88,44.85 -143.6,155.07 -378.85,155.07 -283.28,0 -518.05,-241.4 -571.87,-472.42l1541.57 0c0,-333.14 0.93,-543.71 -254.03,-815.12 -562.04,-598.3 -1635.64,-190.92 -1635.64,616.21z"/>
   <path class="fil2" d="M16664.55 11091.44c0,236.94 175.73,473.4 377.77,591.92 376.26,220.71 637.1,14.36 765.98,-20.05 0,236.27 11.71,328.19 -116.51,455.36 -320.02,317.42 -380.77,-124.33 -380.77,464.61 474.55,0 820.51,-308.91 820.51,-745.92l0 -1914.54 -323.23 0 0 1118.89c0,518.27 -820.52,593.1 -820.52,-49.73l0 -1069.16 -323.23 0 0 1168.62z"/>
   <path class="fil2" d="M15247.29 10395.24c0,980.95 944.84,327.39 944.84,795.65 0,270.61 -100.74,249.56 -397.79,248.67 -99.76,-0.29 -199.53,0.75 -299.26,-0.89 -255.85,-4.22 -222.92,-41.94 -222.92,324.09l770.79 0c511.43,0 688.93,-843.85 134.98,-1054.94 -299.58,-114.16 -607.4,102.61 -607.4,-262.85 0,-120.27 78.65,-198.92 198.92,-198.92l696.19 0 0 -323.23 -721.06 0c-250.4,0 -497.29,215.22 -497.29,472.42z"/>
   <path class="fil2" d="M18305.58 10469.83c0,252.57 144.28,438.24 343.07,502.31 316.55,102.02 601.77,-157.52 601.77,318.21 0,59.86 -89.32,149.18 -149.19,149.18l-745.92 0 0 323.23c413.04,0 854.66,67.94 1064.3,-129.18 263.18,-247.44 208.03,-808.58 -198.15,-935.87 -253.15,-79.33 -592.65,78.89 -592.65,-227.88 0,-313.22 417.95,-223.78 895.11,-223.78l0 -323.23 -721.06 0c-287.04,0 -497.28,251.65 -497.28,547.01z"/>
   <path class="fil2" d="M12437.65 11737.9l298.38 0 578.76 -1360.63c66.36,-154.84 123.15,-310.91 192.02,-454.45l-348.1 0c-107.08,202.38 -492.65,1241.54 -596.74,1317.8 -26.24,-112.66 -80.46,-220.97 -125,-322.54l-422.01 -995.26 -348.09 0 770.78 1815.08z"/>
   <path class="fil2" d="M19747.7 9574.73l0 1740.48c0,253.69 209.6,472.42 522.15,472.42l0 -323.24c-130.99,-2.91 -198.92,-70.72 -198.92,-198.91l0 -1019.43 571.87 0 0 -323.23 -571.87 0c0,-489.33 56.42,-422.69 -248.64,-422.69 -57.29,0 -74.59,17.31 -74.59,74.6z"/>
   <path class="fil3" d="M13954.37 10146.6l0 -223.78 -323.24 0 0 1839.94 323.24 0 0 -969.7c0,-269.09 297.05,-547.01 571.87,-547.01l0 -348.09c-274.02,22.8 -409.29,139.77 -571.87,248.64z"/>
  </g>
 </g>
</svg>
